<mxfile host="Electron" agent="Mozilla/5.0 (Windows NT 10.0; Win64; x64) AppleWebKit/537.36 (KHTML, like Gecko) draw.io/24.7.8 Chrome/128.0.6613.36 Electron/32.0.1 Safari/537.36" version="24.7.8">
  <diagram name="Seite-1" id="2RgLFsR0OVPGsToIyOjf">
    <mxGraphModel dx="819" dy="482" grid="1" gridSize="10" guides="1" tooltips="1" connect="1" arrows="1" fold="1" page="1" pageScale="1" pageWidth="827" pageHeight="1169" math="0" shadow="0">
      <root>
        <mxCell id="0" />
        <mxCell id="1" parent="0" />
        <mxCell id="CmsCAw91hPspcqwAPqo0-3" style="edgeStyle=orthogonalEdgeStyle;rounded=0;orthogonalLoop=1;jettySize=auto;html=1;" edge="1" parent="1" source="CmsCAw91hPspcqwAPqo0-1" target="CmsCAw91hPspcqwAPqo0-2">
          <mxGeometry relative="1" as="geometry" />
        </mxCell>
        <mxCell id="CmsCAw91hPspcqwAPqo0-1" value="Java Programm" style="rounded=0;whiteSpace=wrap;html=1;" vertex="1" parent="1">
          <mxGeometry x="80" y="170" width="120" height="60" as="geometry" />
        </mxCell>
        <mxCell id="CmsCAw91hPspcqwAPqo0-2" value="Microsoft SQL Server" style="rounded=0;whiteSpace=wrap;html=1;" vertex="1" parent="1">
          <mxGeometry x="80" y="360" width="120" height="60" as="geometry" />
        </mxCell>
        <mxCell id="CmsCAw91hPspcqwAPqo0-7" style="edgeStyle=orthogonalEdgeStyle;rounded=0;orthogonalLoop=1;jettySize=auto;html=1;" edge="1" parent="1" source="CmsCAw91hPspcqwAPqo0-4" target="CmsCAw91hPspcqwAPqo0-5">
          <mxGeometry relative="1" as="geometry" />
        </mxCell>
        <mxCell id="CmsCAw91hPspcqwAPqo0-4" value="Java Programm" style="rounded=0;whiteSpace=wrap;html=1;" vertex="1" parent="1">
          <mxGeometry x="440" y="150" width="120" height="60" as="geometry" />
        </mxCell>
        <mxCell id="CmsCAw91hPspcqwAPqo0-8" style="edgeStyle=orthogonalEdgeStyle;rounded=0;orthogonalLoop=1;jettySize=auto;html=1;" edge="1" parent="1" source="CmsCAw91hPspcqwAPqo0-5" target="CmsCAw91hPspcqwAPqo0-6">
          <mxGeometry relative="1" as="geometry" />
        </mxCell>
        <mxCell id="CmsCAw91hPspcqwAPqo0-11" style="edgeStyle=orthogonalEdgeStyle;rounded=0;orthogonalLoop=1;jettySize=auto;html=1;" edge="1" parent="1" source="CmsCAw91hPspcqwAPqo0-5" target="CmsCAw91hPspcqwAPqo0-10">
          <mxGeometry relative="1" as="geometry" />
        </mxCell>
        <mxCell id="CmsCAw91hPspcqwAPqo0-12" style="edgeStyle=orthogonalEdgeStyle;rounded=0;orthogonalLoop=1;jettySize=auto;html=1;" edge="1" parent="1" source="CmsCAw91hPspcqwAPqo0-5" target="CmsCAw91hPspcqwAPqo0-9">
          <mxGeometry relative="1" as="geometry" />
        </mxCell>
        <mxCell id="CmsCAw91hPspcqwAPqo0-5" value="Datenbankschnittelle (API)" style="rounded=0;whiteSpace=wrap;html=1;" vertex="1" parent="1">
          <mxGeometry x="440" y="260" width="120" height="60" as="geometry" />
        </mxCell>
        <mxCell id="CmsCAw91hPspcqwAPqo0-6" value="Microsoft SQL Server" style="rounded=0;whiteSpace=wrap;html=1;" vertex="1" parent="1">
          <mxGeometry x="440" y="360" width="120" height="60" as="geometry" />
        </mxCell>
        <mxCell id="CmsCAw91hPspcqwAPqo0-9" value="MySQL Server" style="rounded=0;whiteSpace=wrap;html=1;" vertex="1" parent="1">
          <mxGeometry x="600" y="360" width="120" height="60" as="geometry" />
        </mxCell>
        <mxCell id="CmsCAw91hPspcqwAPqo0-10" value="Oracle SQL Server" style="rounded=0;whiteSpace=wrap;html=1;" vertex="1" parent="1">
          <mxGeometry x="280" y="360" width="120" height="60" as="geometry" />
        </mxCell>
        <mxCell id="CmsCAw91hPspcqwAPqo0-21" style="edgeStyle=orthogonalEdgeStyle;rounded=0;orthogonalLoop=1;jettySize=auto;html=1;" edge="1" parent="1" source="CmsCAw91hPspcqwAPqo0-13" target="CmsCAw91hPspcqwAPqo0-17">
          <mxGeometry relative="1" as="geometry" />
        </mxCell>
        <mxCell id="CmsCAw91hPspcqwAPqo0-13" value="Java Programm" style="rounded=0;whiteSpace=wrap;html=1;" vertex="1" parent="1">
          <mxGeometry x="230" y="555" width="120" height="60" as="geometry" />
        </mxCell>
        <mxCell id="CmsCAw91hPspcqwAPqo0-14" value="Direkte Abhängigkeit zwischen unserem Programm und dem Microsoft SQL Server DBMS" style="text;html=1;align=center;verticalAlign=middle;whiteSpace=wrap;rounded=0;" vertex="1" parent="1">
          <mxGeometry x="50" y="275" width="200" height="30" as="geometry" />
        </mxCell>
        <mxCell id="CmsCAw91hPspcqwAPqo0-15" value="Keine Abhängigkeit von einem konkreten DMBS, sondern nur von einer allgemeinen Datenbankschnittstelle" style="text;html=1;align=center;verticalAlign=middle;whiteSpace=wrap;rounded=0;" vertex="1" parent="1">
          <mxGeometry x="540" y="220" width="260" height="50" as="geometry" />
        </mxCell>
        <mxCell id="CmsCAw91hPspcqwAPqo0-16" value="Hinter der Datenbankschnittstelle kann ein beliebiges DBMS eingesetzt werden, sofern es die Datenbankschnittstelle implementiert." style="text;html=1;align=center;verticalAlign=middle;whiteSpace=wrap;rounded=0;" vertex="1" parent="1">
          <mxGeometry x="430" y="430" width="260" height="50" as="geometry" />
        </mxCell>
        <mxCell id="CmsCAw91hPspcqwAPqo0-22" style="edgeStyle=orthogonalEdgeStyle;rounded=0;orthogonalLoop=1;jettySize=auto;html=1;" edge="1" parent="1" source="CmsCAw91hPspcqwAPqo0-17" target="CmsCAw91hPspcqwAPqo0-19">
          <mxGeometry relative="1" as="geometry" />
        </mxCell>
        <mxCell id="CmsCAw91hPspcqwAPqo0-23" style="edgeStyle=orthogonalEdgeStyle;rounded=0;orthogonalLoop=1;jettySize=auto;html=1;" edge="1" parent="1" source="CmsCAw91hPspcqwAPqo0-17" target="CmsCAw91hPspcqwAPqo0-18">
          <mxGeometry relative="1" as="geometry" />
        </mxCell>
        <mxCell id="CmsCAw91hPspcqwAPqo0-24" style="edgeStyle=orthogonalEdgeStyle;rounded=0;orthogonalLoop=1;jettySize=auto;html=1;" edge="1" parent="1" source="CmsCAw91hPspcqwAPqo0-17" target="CmsCAw91hPspcqwAPqo0-20">
          <mxGeometry relative="1" as="geometry" />
        </mxCell>
        <mxCell id="CmsCAw91hPspcqwAPqo0-17" value="Drucker Schnittstelle (Printer API)" style="rounded=0;whiteSpace=wrap;html=1;" vertex="1" parent="1">
          <mxGeometry x="230" y="670" width="120" height="60" as="geometry" />
        </mxCell>
        <mxCell id="CmsCAw91hPspcqwAPqo0-18" value="Tintenstrahldrucker" style="rounded=0;whiteSpace=wrap;html=1;" vertex="1" parent="1">
          <mxGeometry x="60" y="820" width="120" height="60" as="geometry" />
        </mxCell>
        <mxCell id="CmsCAw91hPspcqwAPqo0-19" value="Laser Drucker" style="rounded=0;whiteSpace=wrap;html=1;" vertex="1" parent="1">
          <mxGeometry x="230" y="820" width="120" height="60" as="geometry" />
        </mxCell>
        <mxCell id="CmsCAw91hPspcqwAPqo0-20" value="Nadeldrucker" style="rounded=0;whiteSpace=wrap;html=1;" vertex="1" parent="1">
          <mxGeometry x="400" y="820" width="120" height="60" as="geometry" />
        </mxCell>
        <mxCell id="CmsCAw91hPspcqwAPqo0-29" style="edgeStyle=orthogonalEdgeStyle;rounded=0;orthogonalLoop=1;jettySize=auto;html=1;" edge="1" parent="1" source="CmsCAw91hPspcqwAPqo0-25" target="CmsCAw91hPspcqwAPqo0-28">
          <mxGeometry relative="1" as="geometry" />
        </mxCell>
        <mxCell id="CmsCAw91hPspcqwAPqo0-25" value="Klasse" style="rounded=0;whiteSpace=wrap;html=1;" vertex="1" parent="1">
          <mxGeometry x="640" y="555" width="120" height="60" as="geometry" />
        </mxCell>
        <mxCell id="CmsCAw91hPspcqwAPqo0-26" value="HashSet" style="rounded=0;whiteSpace=wrap;html=1;" vertex="1" parent="1">
          <mxGeometry x="640" y="810" width="120" height="60" as="geometry" />
        </mxCell>
        <mxCell id="CmsCAw91hPspcqwAPqo0-30" style="edgeStyle=orthogonalEdgeStyle;rounded=0;orthogonalLoop=1;jettySize=auto;html=1;" edge="1" parent="1" source="CmsCAw91hPspcqwAPqo0-28" target="CmsCAw91hPspcqwAPqo0-26">
          <mxGeometry relative="1" as="geometry" />
        </mxCell>
        <mxCell id="CmsCAw91hPspcqwAPqo0-32" style="edgeStyle=orthogonalEdgeStyle;rounded=0;orthogonalLoop=1;jettySize=auto;html=1;" edge="1" parent="1" source="CmsCAw91hPspcqwAPqo0-28" target="CmsCAw91hPspcqwAPqo0-31">
          <mxGeometry relative="1" as="geometry">
            <Array as="points">
              <mxPoint x="700" y="760" />
              <mxPoint x="870" y="760" />
            </Array>
          </mxGeometry>
        </mxCell>
        <mxCell id="CmsCAw91hPspcqwAPqo0-28" value="Set&amp;nbsp;&lt;div&gt;(Schnittstelle)&lt;/div&gt;" style="rounded=0;whiteSpace=wrap;html=1;" vertex="1" parent="1">
          <mxGeometry x="640" y="680" width="120" height="60" as="geometry" />
        </mxCell>
        <mxCell id="CmsCAw91hPspcqwAPqo0-31" value="TreeSet" style="rounded=0;whiteSpace=wrap;html=1;" vertex="1" parent="1">
          <mxGeometry x="810" y="810" width="120" height="60" as="geometry" />
        </mxCell>
        <mxCell id="CmsCAw91hPspcqwAPqo0-36" style="edgeStyle=orthogonalEdgeStyle;rounded=0;orthogonalLoop=1;jettySize=auto;html=1;" edge="1" parent="1" source="CmsCAw91hPspcqwAPqo0-33" target="CmsCAw91hPspcqwAPqo0-35">
          <mxGeometry relative="1" as="geometry" />
        </mxCell>
        <mxCell id="CmsCAw91hPspcqwAPqo0-33" value="System A" style="rounded=0;whiteSpace=wrap;html=1;" vertex="1" parent="1">
          <mxGeometry x="80" y="30" width="120" height="60" as="geometry" />
        </mxCell>
        <mxCell id="CmsCAw91hPspcqwAPqo0-37" style="edgeStyle=orthogonalEdgeStyle;rounded=0;orthogonalLoop=1;jettySize=auto;html=1;" edge="1" parent="1" source="CmsCAw91hPspcqwAPqo0-34" target="CmsCAw91hPspcqwAPqo0-35">
          <mxGeometry relative="1" as="geometry" />
        </mxCell>
        <mxCell id="CmsCAw91hPspcqwAPqo0-34" value="System B" style="rounded=0;whiteSpace=wrap;html=1;" vertex="1" parent="1">
          <mxGeometry x="340" y="30" width="120" height="60" as="geometry" />
        </mxCell>
        <mxCell id="CmsCAw91hPspcqwAPqo0-35" value="Schnittstelle" style="rounded=0;whiteSpace=wrap;html=1;" vertex="1" parent="1">
          <mxGeometry x="230" y="30" width="80" height="60" as="geometry" />
        </mxCell>
      </root>
    </mxGraphModel>
  </diagram>
</mxfile>
